<svg width="65" height="65" viewBox="0 0 65 65" fill="none" xmlns="http://www.w3.org/2000/svg">
<path d="M18.0557 47.8473V18.0556H47.8473V47.8473H18.0557Z" fill="#DFF0BB"/>
<path d="M18.0552 47.8472V50.5552H47.8472V47.8472M18.0552 47.8472H47.8472M18.0552 47.8472H15.3472V18.0552H18.0552M18.0552 47.8472V18.0552M47.8472 47.8472H50.5552V18.0552H47.8472M47.8472 47.8472V18.0552M18.0552 18.0552H47.8472M18.0552 18.0552V15.3472H47.8472V18.0552M26.1802 39.7222H23.4722V42.4302H26.1802V39.7222ZM26.1802 39.7222H28.8892V37.0142M26.1802 39.7222V37.0142H28.8892M39.7222 39.7222V42.4302H42.4302V39.7222H39.7222ZM39.7222 39.7222H37.0142V37.0142M39.7222 39.7222V37.0142H37.0142M28.8892 37.0142H31.5972V34.3052M28.8892 37.0142V34.3052H31.5972M37.0142 37.0142H34.3052V34.3052M37.0142 37.0142V34.3052H34.3052M31.5972 34.3052H34.3052M31.5972 34.3052V31.5972M34.3052 34.3052V31.5972M31.5972 31.5972H34.3052M31.5972 31.5972H28.8892V28.8892M31.5972 31.5972V28.8892H28.8892M34.3052 31.5972H37.0142V28.8892M34.3052 31.5972V28.8892H37.0142M28.8892 28.8892H26.1802V26.1802M28.8892 28.8892V26.1802H26.1802M37.0142 28.8892H39.7222V26.1802M37.0142 28.8892V26.1802H39.7222M26.1802 26.1802H23.4722V23.4722H26.1802V26.1802ZM39.7222 26.1802H42.4302V23.4722H39.7222V26.1802Z" fill="#67835C"/>
<path d="M18.0552 47.8472V50.5552H47.8472V47.8472M18.0552 47.8472H47.8472M18.0552 47.8472H15.3472V18.0552H18.0552M18.0552 47.8472V18.0552M47.8472 47.8472H50.5552V18.0552H47.8472M47.8472 47.8472V18.0552M18.0552 18.0552H47.8472M18.0552 18.0552V15.3472H47.8472V18.0552M26.1802 39.7222H23.4722V42.4302H26.1802V39.7222ZM26.1802 39.7222H28.8892V37.0142M26.1802 39.7222V37.0142H28.8892M39.7222 39.7222V42.4302H42.4302V39.7222H39.7222ZM39.7222 39.7222H37.0142V37.0142M39.7222 39.7222V37.0142H37.0142M28.8892 37.0142H31.5972V34.3052M28.8892 37.0142V34.3052H31.5972M37.0142 37.0142H34.3052V34.3052M37.0142 37.0142V34.3052H34.3052M31.5972 34.3052H34.3052M31.5972 34.3052V31.5972M34.3052 34.3052V31.5972M31.5972 31.5972H34.3052M31.5972 31.5972H28.8892V28.8892M31.5972 31.5972V28.8892H28.8892M34.3052 31.5972H37.0142V28.8892M34.3052 31.5972V28.8892H37.0142M28.8892 28.8892H26.1802V26.1802M28.8892 28.8892V26.1802H26.1802M37.0142 28.8892H39.7222V26.1802M37.0142 28.8892V26.1802H39.7222M26.1802 26.1802H23.4722V23.4722H26.1802V26.1802ZM39.7222 26.1802H42.4302V23.4722H39.7222V26.1802Z" stroke="#67835C"/>
</svg>
